REM MD5 e66029acd3dd90ecf3aa3f3c6805ac9b
FILE "Jonah Lomu Rugby (Europe) (En,De,Es,It).bin" BINARY
  TRACK 01 MODE2/2352
    INDEX 01 00:00:00
  TRACK 02 AUDIO
    INDEX 00 18:45:09
    INDEX 01 18:47:09
  TRACK 03 AUDIO
    INDEX 00 22:44:13
    INDEX 01 22:46:13
  TRACK 04 AUDIO
    INDEX 00 24:26:36
    INDEX 01 24:28:36
REM LEADOUT 27:31:26
